<svg width="650" height="200" viewBox="0 0 650 200" fill="none" xmlns="http://www.w3.org/2000/svg">
<rect width="200" height="200" rx="20" fill="#9929BD"/>
<path d="M54.4647 151V49.1818H75.9917V94.0753H77.334L113.975 49.1818H139.777L101.993 94.7713L140.225 151H114.472L86.5811 109.139L75.9917 122.065V151H54.4647Z" fill="white"/>
<path d="M269.573 152.442C264.701 152.442 260.359 151.597 256.547 149.906C252.736 148.183 249.72 145.647 247.499 142.3C245.312 138.919 244.218 134.71 244.218 129.672C244.218 125.429 244.997 121.866 246.555 118.983C248.112 116.099 250.233 113.779 252.918 112.023C255.603 110.266 258.652 108.94 262.066 108.045C265.513 107.151 269.126 106.521 272.904 106.156C277.345 105.692 280.925 105.261 283.643 104.864C286.36 104.433 288.332 103.803 289.559 102.974C290.785 102.146 291.398 100.92 291.398 99.2955V98.9972C291.398 95.8485 290.404 93.4124 288.415 91.6889C286.46 89.9654 283.676 89.1037 280.063 89.1037C276.251 89.1037 273.219 89.9489 270.965 91.6392C268.711 93.2964 267.22 95.3845 266.491 97.9034L246.903 96.3125C247.897 91.6723 249.852 87.6619 252.769 84.2812C255.686 80.8674 259.448 78.249 264.055 76.4261C268.695 74.5701 274.064 73.642 280.162 73.642C284.405 73.642 288.465 74.1392 292.343 75.1335C296.254 76.1278 299.717 77.669 302.733 79.7571C305.783 81.8452 308.186 84.5298 309.942 87.8111C311.699 91.0592 312.577 94.9536 312.577 99.4943V151H292.492V140.411H291.895C290.669 142.797 289.028 144.902 286.974 146.724C284.919 148.514 282.449 149.923 279.566 150.95C276.682 151.945 273.351 152.442 269.573 152.442ZM275.638 137.825C278.754 137.825 281.505 137.212 283.891 135.986C286.278 134.726 288.15 133.036 289.509 130.915C290.868 128.794 291.547 126.391 291.547 123.706V115.602C290.885 116.033 289.973 116.431 288.813 116.795C287.686 117.127 286.41 117.442 284.985 117.74C283.56 118.005 282.135 118.254 280.709 118.486C279.284 118.685 277.992 118.867 276.831 119.033C274.346 119.397 272.175 119.977 270.319 120.773C268.463 121.568 267.021 122.645 265.993 124.004C264.966 125.33 264.452 126.987 264.452 128.976C264.452 131.859 265.496 134.063 267.584 135.588C269.706 137.08 272.39 137.825 275.638 137.825ZM350.187 106.852V151H329.008V74.6364H349.193V88.1094H350.088C351.778 83.6681 354.612 80.1548 358.589 77.5696C362.567 74.9512 367.389 73.642 373.057 73.642C378.36 73.642 382.983 74.8021 386.927 77.1222C390.872 79.4422 393.937 82.7566 396.125 87.0653C398.312 91.3409 399.406 96.4451 399.406 102.378V151H378.227V106.156C378.26 101.483 377.067 97.8371 374.648 95.2188C372.228 92.5672 368.897 91.2415 364.655 91.2415C361.804 91.2415 359.285 91.8546 357.098 93.081C354.943 94.3073 353.253 96.0971 352.027 98.4503C350.834 100.77 350.22 103.571 350.187 106.852ZM456.716 74.6364V90.5455H410.729V74.6364H456.716ZM421.169 56.3409H442.348V127.534C442.348 129.49 442.646 131.014 443.243 132.108C443.84 133.169 444.668 133.914 445.729 134.345C446.823 134.776 448.082 134.991 449.507 134.991C450.502 134.991 451.496 134.909 452.49 134.743C453.485 134.544 454.247 134.395 454.777 134.295L458.108 150.055C457.048 150.387 455.556 150.768 453.634 151.199C451.711 151.663 449.375 151.945 446.624 152.044C441.52 152.243 437.045 151.563 433.2 150.006C429.389 148.448 426.423 146.028 424.301 142.747C422.18 139.466 421.136 135.323 421.169 130.318V56.3409ZM504.195 152.491C496.472 152.491 489.794 150.851 484.159 147.57C478.558 144.255 474.233 139.648 471.183 133.749C468.134 127.816 466.61 120.938 466.61 113.116C466.61 105.228 468.134 98.3343 471.183 92.4347C474.233 86.5019 478.558 81.8949 484.159 78.6136C489.794 75.2992 496.472 73.642 504.195 73.642C511.917 73.642 518.579 75.2992 524.181 78.6136C529.815 81.8949 534.157 86.5019 537.206 92.4347C540.255 98.3343 541.78 105.228 541.78 113.116C541.78 120.938 540.255 127.816 537.206 133.749C534.157 139.648 529.815 144.255 524.181 147.57C518.579 150.851 511.917 152.491 504.195 152.491ZM504.294 136.085C507.807 136.085 510.741 135.091 513.094 133.102C515.447 131.08 517.22 128.33 518.414 124.849C519.64 121.369 520.253 117.409 520.253 112.967C520.253 108.526 519.64 104.565 518.414 101.085C517.22 97.6051 515.447 94.8542 513.094 92.8324C510.741 90.8106 507.807 89.7997 504.294 89.7997C500.748 89.7997 497.765 90.8106 495.345 92.8324C492.959 94.8542 491.153 97.6051 489.926 101.085C488.733 104.565 488.137 108.526 488.137 112.967C488.137 117.409 488.733 121.369 489.926 124.849C491.153 128.33 492.959 131.08 495.345 133.102C497.765 135.091 500.748 136.085 504.294 136.085ZM555.551 151V74.6364H576.084V87.9602H576.879C578.271 83.2206 580.608 79.6411 583.889 77.2216C587.171 74.7689 590.949 73.5426 595.225 73.5426C596.285 73.5426 597.429 73.6089 598.655 73.7415C599.881 73.8741 600.959 74.0563 601.887 74.2883V93.081C600.892 92.7827 599.517 92.5175 597.76 92.2855C596.003 92.0535 594.396 91.9375 592.938 91.9375C589.822 91.9375 587.038 92.617 584.585 93.9759C582.166 95.3016 580.244 97.1577 578.818 99.544C577.426 101.93 576.73 104.681 576.73 107.797V151H555.551Z" fill="#9929BD"/>
</svg>
